<svg width="54" height="54" viewBox="0 0 54 54" fill="none" xmlns="http://www.w3.org/2000/svg">
<path d="M43.4874 18.5777C44.129 18.8957 44.8371 18.2948 44.6198 17.6125C43.1997 13.1535 38.7461 2.45421 28.5882 1.91294C17.015 1.29637 13.5309 8.56781 14.6583 12.5069L16.0121 15.185C16.6292 17.1548 18.6113 20.6398 24.9017 20.4503C33.0069 20.2062 36.6605 15.1938 43.4874 18.5777Z" fill="#7AC44D"/>
<path d="M29.7454 6.54882C35.7956 6.55125 40.1603 9.96475 43.1633 13.8277C40.8981 8.84087 36.4535 2.33197 28.5882 1.91294C17.015 1.29637 13.5309 8.56781 14.6583 12.5069L15.4668 14.1063C16.8291 10.3591 21.1111 6.54534 29.7454 6.54882Z" fill="#6EB245"/>
<path d="M48.658 27.9483L45.6618 27.7817C43.6473 27.3312 39.6381 27.3054 36.6571 32.8477C32.816 39.989 35.3299 45.6594 28.986 49.8796C28.3898 50.2763 28.5562 51.1899 29.2558 51.3429C33.8274 52.3425 45.3202 53.8352 50.8678 45.3088C57.1882 35.5945 52.6331 28.9415 48.658 27.9483Z" fill="#7AC44D"/>
<path d="M33.7662 51.6115C40.1102 47.12 37.5962 41.0851 41.4373 33.4849C43.5487 29.3073 46.1756 28.1026 48.2445 27.9255L45.6615 27.7818C43.6471 27.3314 39.6379 27.3055 36.6568 32.8478C32.8157 39.9891 35.3297 45.6595 28.9858 49.8797C28.3895 50.2764 28.556 51.1901 29.2555 51.343C30.3315 51.5783 31.791 51.8408 33.466 51.9936C33.5244 51.847 33.6227 51.7132 33.7662 51.6115Z" fill="#6EB245"/>
<path d="M8.50432 21.4609C8.45896 20.7463 7.58442 20.4336 7.10221 20.9629C3.9507 24.4223 -3.08839 33.6289 1.52186 42.6964C6.77452 53.0274 14.8138 52.4089 17.6614 49.4631L19.3039 46.9516C20.7011 45.4322 22.7281 41.9731 19.419 36.6203C15.1549 29.7231 8.98726 29.0651 8.50432 21.4609Z" fill="#7AC44D"/>
<path d="M5.97669 42.6964C2.4169 35.6949 5.80256 28.6113 8.98107 24.1539C8.73406 23.3579 8.56869 22.4712 8.50456 21.4609C8.45921 20.7463 7.58466 20.4336 7.10246 20.9629C3.95095 24.4223 -3.08814 33.6289 1.52211 42.6964C5.53878 50.5965 11.1847 52.0936 14.8929 51.0435C11.8853 50.2595 8.58693 47.8303 5.97669 42.6964Z" fill="#6EB245"/>
<path d="M10.9638 16.8746C10.7574 17.0398 10.6506 17.2817 10.6475 17.5273L11.1986 18.2162C11.5141 18.6105 12.103 18.639 12.4554 18.2774C14.5955 16.0813 21.7479 9.5687 29.7309 11.4185C29.9034 11.4585 30.0466 11.3978 30.1386 11.2932C26.8614 9.80421 20.605 9.16169 10.9638 16.8746Z" fill="#C3EBB0"/>
<path d="M11.1055 16.8881C20.6069 9.28711 26.7691 9.9291 29.9927 11.3984C30.2768 11.2779 30.3686 10.8431 30.0426 10.6466C27.171 8.91565 20.7412 7.21306 10.2091 15.6386C9.84781 15.9276 9.79064 16.4562 10.0796 16.8176L10.8158 17.7378C10.7428 17.4318 10.8441 17.0974 11.1055 16.8881Z" fill="#97DC7C"/>
<path d="M48.1703 22.5293C48.1007 22.0718 47.6714 21.758 47.2141 21.8277L46.2955 21.9676C46.0985 22.174 46.0085 22.4757 46.0929 22.775C46.9247 25.7263 48.9885 35.177 43.395 41.1654C43.2494 41.3212 43.251 41.513 43.3341 41.6585L43.3668 41.711C46.268 39.7055 50.0267 34.7177 48.1703 22.5293Z" fill="#C3EBB0"/>
<path d="M43.5037 41.1654C49.0972 35.1769 47.0334 25.7264 46.2016 22.775C46.1147 22.4668 46.2116 22.1551 46.4213 21.9485L45.4434 22.0974C44.9441 22.1735 44.6249 22.6692 44.762 23.1553C45.5939 26.1066 47.6577 35.5572 42.0641 41.5456C41.7354 41.8976 42.1554 42.4344 42.5769 42.2015C42.8524 42.0493 43.1435 41.8697 43.4429 41.6584C43.3597 41.513 43.3582 41.3213 43.5037 41.1654Z" fill="#97DC7C"/>
<path d="M23.7602 48.4857C20.7883 47.7304 11.572 44.7924 9.18252 36.954C9.10953 36.7144 8.89205 36.6264 8.69873 36.6638C8.81664 36.6865 8.92591 36.7571 8.98866 36.8832C9.40168 40.4588 12.0601 46.0605 23.3231 50.4609C23.5575 50.5524 23.8074 50.5308 24.0154 50.4244L24.3356 49.6047C24.5195 49.1343 24.2497 48.6101 23.7602 48.4857Z" fill="#C3EBB0"/>
<path d="M23.3316 50.3107C12.191 45.9582 9.5616 40.4174 9.15302 36.8807C8.96655 36.506 8.36685 36.6163 8.35831 37.0702C8.29503 40.4225 10.0355 46.8423 22.5982 51.7505C23.0291 51.9188 23.5155 51.7041 23.6839 51.2731L24.0903 50.2327C23.8719 50.3736 23.5919 50.4124 23.3316 50.3107Z" fill="#97DC7C"/>
</svg>
