<svg width="54" height="54" viewBox="0 0 54 54" fill="none" xmlns="http://www.w3.org/2000/svg">
<path d="M24.2541 21.9661C24.2541 28.5374 18.9271 33.8644 12.3558 33.8644C5.78458 33.8644 0.45752 28.5374 0.45752 21.9661C0.45752 15.3949 5.78458 10.0678 12.3558 10.0678C18.9271 10.0678 24.2541 15.3949 24.2541 21.9661Z" fill="#9D3E89"/>
<path d="M53.5423 28.3729C53.5423 38.4827 45.347 46.678 35.2372 46.678C25.1274 46.678 16.9321 38.4827 16.9321 28.3729C16.9321 18.2631 25.1274 10.0678 35.2372 10.0678C45.347 10.0678 53.5423 18.2631 53.5423 28.3729Z" fill="#DB99CD"/>
<path d="M10.5254 43.9322C9.00904 43.9322 7.77961 42.7028 7.77961 41.1864C7.77961 40.681 7.3698 40.2712 6.86436 40.2712C6.35891 40.2712 5.9491 40.681 5.9491 41.1864C5.9491 42.7028 4.71968 43.9322 3.20334 43.9322C2.69789 43.9322 2.28809 44.342 2.28809 44.8475C2.28809 45.3529 2.69789 45.7627 3.20334 45.7627C4.71968 45.7627 5.9491 46.9921 5.9491 48.5085C5.9491 49.0139 6.35891 49.4237 6.86436 49.4237C7.3698 49.4237 7.77961 49.0139 7.77961 48.5085C7.77961 46.9921 9.00904 45.7627 10.5254 45.7627C11.0308 45.7627 11.4406 45.3529 11.4406 44.8475C11.4406 44.342 11.0308 43.9322 10.5254 43.9322ZM6.86436 45.7909C6.59756 45.432 6.27981 45.1143 5.92095 44.8475C6.27981 44.5807 6.59756 44.2629 6.86436 43.904C7.13116 44.2629 7.4489 44.5807 7.80777 44.8475C7.4489 45.1143 7.13116 45.432 6.86436 45.7909Z" fill="#9D3E89"/>
<path d="M48.966 3.66102C47.4497 3.66102 46.2203 2.43159 46.2203 0.915254C46.2203 0.409809 45.8105 0 45.305 0C44.7996 0 44.3898 0.409809 44.3898 0.915254C44.3898 2.43159 43.1604 3.66102 41.644 3.66102C41.1386 3.66102 40.7288 4.07083 40.7288 4.57627C40.7288 5.08172 41.1386 5.49153 41.644 5.49153C43.1604 5.49153 44.3898 6.72095 44.3898 8.23729C44.3898 8.74273 44.7996 9.15254 45.305 9.15254C45.8105 9.15254 46.2203 8.74273 46.2203 8.23729C46.2203 6.72095 47.4497 5.49153 48.966 5.49153C49.4715 5.49153 49.8813 5.08172 49.8813 4.57627C49.8813 4.07083 49.4715 3.66102 48.966 3.66102ZM45.305 5.51968C45.0382 5.16082 44.7205 4.84307 44.3616 4.57627C44.7205 4.30947 45.0382 3.99172 45.305 3.63286C45.5718 3.99172 45.8896 4.30947 46.2484 4.57627C45.8896 4.84307 45.5718 5.16082 45.305 5.51968Z" fill="#9D3E89"/>
<path d="M47.1355 28.3729C45.6191 28.3729 44.3897 27.1434 44.3897 25.6271C44.3897 25.1217 43.9799 24.7119 43.4745 24.7119C42.969 24.7119 42.5592 25.1217 42.5592 25.6271C42.5592 27.1434 41.3298 28.3729 39.8134 28.3729C39.308 28.3729 38.8982 28.7827 38.8982 29.2881C38.8982 29.7936 39.308 30.2034 39.8134 30.2034C41.3298 30.2034 42.5592 31.4328 42.5592 32.9491C42.5592 33.4546 42.969 33.8644 43.4745 33.8644C43.9799 33.8644 44.3897 33.4546 44.3897 32.9491C44.3897 31.4328 45.6191 30.2034 47.1355 30.2034C47.6409 30.2034 48.0507 29.7936 48.0507 29.2881C48.0507 28.7827 47.6409 28.3729 47.1355 28.3729ZM43.4745 30.2315C43.2077 29.8727 42.8899 29.5549 42.5311 29.2881C42.8899 29.0213 43.2077 28.7036 43.4745 28.3447C43.7413 28.7036 44.059 29.0213 44.4179 29.2881C44.059 29.5549 43.7413 29.8727 43.4745 30.2315Z" fill="#FFF7FD"/>
<path d="M36.1526 20.1356C34.6362 20.1356 33.4068 18.9061 33.4068 17.3898C33.4068 16.8844 32.997 16.4745 32.4916 16.4745C31.9861 16.4745 31.5763 16.8844 31.5763 17.3898C31.5763 18.9061 30.3469 20.1356 28.8305 20.1356C28.3251 20.1356 27.9153 20.5454 27.9153 21.0508C27.9153 21.5563 28.3251 21.9661 28.8305 21.9661C30.3469 21.9661 31.5763 23.1955 31.5763 24.7118C31.5763 25.2173 31.9861 25.6271 32.4916 25.6271C32.997 25.6271 33.4068 25.2173 33.4068 24.7118C33.4068 23.1955 34.6362 21.9661 36.1526 21.9661C36.658 21.9661 37.0678 21.5563 37.0678 21.0508C37.0678 20.5454 36.658 20.1356 36.1526 20.1356ZM32.4916 21.9942C32.2248 21.6354 31.907 21.3176 31.5482 21.0508C31.907 20.784 32.2248 20.4663 32.4916 20.1074C32.7584 20.4663 33.0761 20.784 33.435 21.0508C33.0761 21.3176 32.7584 21.6354 32.4916 21.9942Z" fill="#FFF7FD"/>
<path d="M10.5254 37.5254H12.3559V39.3559H10.5254V37.5254Z" fill="#FCEC97"/>
<path d="M1.3728 50.339H3.20331V52.1695H1.3728V50.339Z" fill="#FCEC97"/>
<path d="M52.6271 47.5932C52.6271 48.6041 51.8075 49.4237 50.7966 49.4237C49.7857 49.4237 48.9661 48.6041 48.9661 47.5932C48.9661 46.5823 49.7857 45.7627 50.7966 45.7627C51.8075 45.7627 52.6271 46.5823 52.6271 47.5932Z" fill="#660351"/>
<path d="M26.0848 6.40677C26.0848 7.92311 24.8554 9.15254 23.339 9.15254C21.8227 9.15254 20.5933 7.92311 20.5933 6.40677C20.5933 4.89044 21.8227 3.66101 23.339 3.66101C24.8554 3.66101 26.0848 4.89044 26.0848 6.40677Z" fill="#660351"/>
<path d="M32.4915 4.57629H34.322V6.4068H32.4915V4.57629Z" fill="#FCEC97"/>
<path d="M36.1526 38.4407H37.9831V40.2712H36.1526V38.4407Z" fill="#E6F1FD"/>
<path d="M41.644 50.339H43.4746V52.1695H41.644V50.339Z" fill="#FCEC97"/>
<path d="M10.5254 23.7966H12.3559V25.6271H10.5254V23.7966Z" fill="#FFF7FD"/>
<path d="M3.20345 23.8789C3.18423 23.6684 2.76682 18.6693 5.72129 15.4346C7.44633 13.6381 9.86854 12.6808 12.356 12.8136V14.6441C10.3856 14.5234 8.4599 15.2621 7.07585 16.6694C4.66124 19.312 5.02591 23.6702 5.03396 23.7144L3.20345 23.8789Z" fill="#FFF7FD"/>
<path d="M48.9742 27.5783C47.2755 14.839 36.604 14.6441 36.1526 14.6441V12.8136C36.28 12.8136 48.8745 12.9803 50.7886 27.337L48.9742 27.5783Z" fill="#FFF7FD"/>
<path d="M32.4916 44.8475C32.4916 49.9024 28.394 54 23.3391 54C18.2842 54 14.1865 49.9024 14.1865 44.8475C14.1865 39.7926 18.2842 35.6949 23.3391 35.6949C28.394 35.6949 32.4916 39.7926 32.4916 44.8475Z" fill="#9D3E89"/>
</svg>
