<svg width="48" height="50" viewBox="0 0 48 50" fill="none" xmlns="http://www.w3.org/2000/svg">
<path d="M46.7813 25C46.7813 23.1927 48.2452 21.2453 47.8604 19.5544C47.4639 17.8079 45.2904 16.6857 44.5302 15.1138C43.7581 13.5107 44.2289 11.1186 43.1304 9.74331C42.0318 8.368 39.5866 8.29122 38.2037 7.18759C36.8208 6.08397 36.2209 3.72231 34.6195 2.94944C33.0442 2.19006 30.8175 3.18231 29.0718 2.78491C27.3809 2.401 25.8074 0.53125 24 0.53125C22.1927 0.53125 20.62 2.401 18.9283 2.78491C17.1825 3.18231 14.9559 2.19428 13.3806 2.94944C11.7775 3.72231 11.1717 6.08987 9.79635 7.18759C8.42104 8.28531 5.97248 8.36125 4.86885 9.74331C3.76523 11.1254 4.24195 13.5123 3.46991 15.1138C2.71054 16.6891 0.536195 17.8079 0.139632 19.5544C-0.245118 21.2453 1.21879 23.1927 1.21879 25C1.21879 26.8073 -0.245118 28.7547 0.139632 30.4456C0.536195 32.1921 2.7097 33.3143 3.46991 34.8862C4.24195 36.4893 3.77113 38.8814 4.86969 40.2567C5.96826 41.632 8.41345 41.7088 9.79635 42.8124C11.1793 43.916 11.7792 46.2777 13.3806 47.0506C14.9559 47.8099 17.1825 46.8177 18.9283 47.2193C20.6191 47.599 22.1927 49.4688 24 49.4688C25.8074 49.4688 27.3801 47.599 29.0718 47.2151C30.8175 46.8177 33.0442 47.8057 34.6195 47.0463C36.2226 46.2735 36.8284 43.9059 38.2037 42.8082C39.579 41.7105 42.0276 41.6345 43.1312 40.2525C44.2349 38.8704 43.7581 36.4834 44.5302 34.882C45.2895 33.3067 47.4639 32.1879 47.8604 30.4413C48.2452 28.7547 46.7813 26.8073 46.7813 25Z" fill="#FE96C6"/>
<path d="M24 45.25H23.622L23.6566 43.5625H24C24.6926 43.5626 25.3847 43.5245 26.0731 43.4486L26.257 45.1268C25.5075 45.2084 24.754 45.2496 24 45.25ZM20.9937 45.0289C20.1231 44.8986 19.2618 44.712 18.4152 44.4704L18.8793 42.847C19.6549 43.0688 20.444 43.2402 21.2418 43.36L20.9937 45.0289ZM28.8566 44.6636L28.4525 43.025C29.2369 42.832 30.0077 42.5876 30.7601 42.2935L31.3735 43.8654C30.553 44.1864 29.7122 44.453 28.8566 44.6636ZM15.9312 43.5777C15.1242 43.2266 14.341 42.8233 13.5864 42.3703L14.4555 40.9233C15.1464 41.3386 15.8637 41.7084 16.6028 42.0303L15.9312 43.5777ZM33.7647 42.7441L32.9497 41.2658C33.6566 40.8759 34.3376 40.4404 34.9882 39.9622L35.988 41.3224C35.2781 41.8434 34.5355 42.3183 33.7647 42.7441ZM11.4188 40.8693C10.7295 40.3213 10.0762 39.7294 9.46303 39.0974L10.6747 37.922C11.2364 38.5018 11.8354 39.0443 12.4676 39.5463L11.4188 40.8693ZM38.0062 39.623L36.8385 38.4055C37.4217 37.8468 37.9679 37.2507 38.4737 36.621L39.7891 37.679C39.2372 38.3647 38.6417 39.014 38.0062 39.623ZM7.75022 37.0918C7.22494 36.3854 6.74582 35.6459 6.31584 34.8778L7.78819 34.0543C8.18313 34.7589 8.62308 35.4372 9.10528 36.0852L7.75022 37.0918ZM41.3045 35.5241L39.8625 34.6424C40.2818 33.9539 40.6558 33.2389 40.9822 32.5018L42.5254 33.1835C42.1702 33.9883 41.763 34.769 41.3062 35.5207L41.3045 35.5241ZM5.18438 32.49C4.8574 31.6713 4.58401 30.8323 4.36594 29.9781L6.00281 29.5647C6.20065 30.3475 6.44981 31.1164 6.74869 31.8665L5.18438 32.49ZM43.4392 30.7046L41.8158 30.2313C42.0423 29.456 42.2182 28.6668 42.3423 27.8688L44.0095 28.1278C43.8743 28.9983 43.6823 29.8591 43.4349 30.7046H43.4392ZM3.88922 27.3819C3.79636 26.5914 3.74987 25.796 3.75 25V24.7469L5.4375 24.7654V25.0017C5.43779 25.7309 5.48033 26.4594 5.56491 27.1836L3.88922 27.3819ZM44.2441 25.5004L42.5566 25.4607C42.5566 25.3071 42.5617 25.1544 42.5617 25C42.5619 24.1928 42.5097 23.3865 42.4056 22.586L44.0796 22.3684C44.1927 23.241 44.2497 24.12 44.25 25C44.25 25.1688 44.25 25.3375 44.2441 25.5004ZM5.62397 22.3574L3.95334 22.1186C4.0781 21.2466 4.25932 20.3836 4.49588 19.535L6.12094 19.9898C5.90425 20.7674 5.73825 21.5583 5.62397 22.3574ZM41.9398 20.2134C41.7318 19.4331 41.4728 18.6673 41.1644 17.921L42.7245 17.2772C43.06 18.0918 43.3419 18.9275 43.5683 19.7789L41.9398 20.2134ZM6.92419 17.71L5.37253 17.046C5.719 16.2372 6.11752 15.4517 6.56559 14.6945L8.01769 15.5551C7.60635 16.2488 7.24079 16.9686 6.92334 17.71H6.92419ZM40.0979 15.75C39.6943 15.0506 39.2462 14.3779 38.7563 13.736L40.0971 12.7116C40.6313 13.4108 41.12 14.1435 41.5601 14.9054L40.0979 15.75ZM9.38541 13.5562L8.05313 12.5184C8.59624 11.8253 9.18359 11.1681 9.8115 10.5508L10.9927 11.7557C10.4176 12.3211 9.8796 12.9231 9.38203 13.5579L9.38541 13.5562ZM37.1625 11.9126C36.5938 11.3391 35.9881 10.8036 35.3493 10.3095L36.3829 8.97467C37.0786 9.51393 37.7389 10.0973 38.3598 10.7212L37.1625 11.9126ZM12.8271 10.1762L11.8146 8.82617C12.518 8.2965 13.2547 7.8126 14.0201 7.37745L14.8529 8.84389C14.1497 9.24397 13.473 9.68898 12.8271 10.1762ZM33.3462 8.9578C32.6497 8.55186 31.9276 8.19139 31.1845 7.87864L31.8384 6.32276C32.6509 6.66446 33.4401 7.05906 34.2009 7.50401L33.3462 8.9578ZM17.0281 7.78751L16.3927 6.22404C17.2097 5.89253 18.0477 5.61546 18.9012 5.39464L19.3231 7.0273C18.5423 7.23031 17.7757 7.48426 17.0281 7.78751ZM28.8988 7.0872C28.121 6.87535 27.3301 6.71469 26.5312 6.60626L26.7599 4.93395C27.6322 5.05283 28.4958 5.22871 29.3452 5.46045L28.8988 7.0872ZM21.6982 6.5742L21.4932 4.9002C22.325 4.7992 23.1621 4.74905 24 4.75001H24.1207V6.43751H24C23.2306 6.4378 22.462 6.48457 21.6982 6.57758V6.5742Z" fill="#FE96C6"/>
<path d="M24 40.1875C32.3878 40.1875 39.1875 33.3878 39.1875 25C39.1875 16.6122 32.3878 9.8125 24 9.8125C15.6122 9.8125 8.8125 16.6122 8.8125 25C8.8125 33.3878 15.6122 40.1875 24 40.1875Z" fill="#83BEB9"/>
<path d="M24 15.717L26.1912 22.4687H33.2812L27.5454 26.6284L29.7358 33.3717L24 29.2035L18.2642 33.3717L20.4546 26.6284L14.7188 22.4687H21.8088L24 15.717Z" fill="#02998A"/>
</svg>
